<svg width="1017" height="194" viewBox="0 0 1017 194" fill="none" xmlns="http://www.w3.org/2000/svg">
<path fill-rule="evenodd" clip-rule="evenodd" d="M1016.23 133.026L973.887 107.62C931.544 82.2147 846.858 31.4032 762.172 11.0786C677.486 -9.24596 592.801 0.916336 508.115 21.2409C423.429 41.5655 338.743 72.0524 254.057 87.2959C169.372 102.539 84.6858 102.539 42.3429 102.539L-6.10352e-05 102.539V194H42.3429C84.6858 194 169.372 194 254.057 194C338.743 194 423.429 194 508.115 194C592.801 194 677.486 194 762.172 194C846.858 194 931.544 194 973.887 194H1016.23V133.026Z" fill="#00BBFF"/>
</svg>
