<svg width="33" height="32" viewBox="0 0 33 32" fill="none" xmlns="http://www.w3.org/2000/svg">
<path d="M26 5.33333H22V2.66667H19.3333V5.33333H14V2.66667H11.3333V5.33333H7.33329C5.86263 5.33333 4.66663 6.52933 4.66663 8V26.6667C4.66663 28.1373 5.86263 29.3333 7.33329 29.3333H26C27.4706 29.3333 28.6666 28.1373 28.6666 26.6667V8C28.6666 6.52933 27.4706 5.33333 26 5.33333ZM7.33329 26.6667V9.33333H26V8L26.0026 26.6667H7.33329Z" fill="black"/>
<path d="M21.504 16.244L19.104 13.8453L20.9306 12.0173L23.3306 14.416L21.504 16.244ZM11.34 21.6013V24H13.7386L20.3733 17.3733L17.9746 14.9747L11.34 21.6013Z" fill="black"/>
</svg>
