<svg width="33" height="28" viewBox="0 0 33 28" fill="none" xmlns="http://www.w3.org/2000/svg">
<g clip-path="url(#clip0)">
<path d="M11.8666 14C15.4016 14 18.2666 10.8664 18.2666 7C18.2666 3.13359 15.4016 0 11.8666 0C8.33163 0 5.46663 3.13359 5.46663 7C5.46663 10.8664 8.33163 14 11.8666 14ZM16.3466 15.75H15.5116C14.4016 16.3078 13.1666 16.625 11.8666 16.625C10.5666 16.625 9.33663 16.3078 8.22163 15.75H7.38663C3.67663 15.75 0.666626 19.0422 0.666626 23.1V25.375C0.666626 26.8242 1.74163 28 3.06663 28H16.8116C16.6916 27.6281 16.6416 27.2344 16.6816 26.8352L17.0216 23.5047L17.0816 22.8977L17.4766 22.4656L21.3416 18.2383C20.1166 16.7234 18.3416 15.75 16.3466 15.75ZM18.6116 23.6961L18.2716 27.032C18.2166 27.5898 18.6466 28.0602 19.1516 27.9945L22.1966 27.6227L29.0916 20.0813L25.5066 16.1602L18.6116 23.6961ZM32.3166 14.7055L30.4216 12.6328C29.9566 12.1242 29.1966 12.1242 28.7316 12.6328L26.8416 14.7L26.6366 14.9242L30.2266 18.8453L32.3166 16.5594C32.7816 16.0453 32.7816 15.2195 32.3166 14.7055Z" fill="black"/>
</g>
<defs>
<clipPath id="clip0">
<rect width="32" height="28" fill="white" transform="translate(0.666626)"/>
</clipPath>
</defs>
</svg>
