<svg width="33" height="32" viewBox="0 0 33 32" fill="none" xmlns="http://www.w3.org/2000/svg">
<path d="M25.368 3.48134C22.6862 2.06624 19.6989 1.3288 16.6666 1.33334C13.6574 1.32873 10.692 2.05487 8.02529 3.44934M19.3333 20C19.3333 19.4726 19.1769 18.957 18.8839 18.5185C18.5909 18.08 18.1744 17.7382 17.6871 17.5363C17.1998 17.3345 16.6637 17.2817 16.1464 17.3846C15.6291 17.4875 15.1539 17.7414 14.781 18.1144C14.4081 18.4873 14.1541 18.9625 14.0512 19.4798C13.9483 19.997 14.0011 20.5332 14.2029 21.0205C14.4048 21.5078 14.7466 21.9242 15.1851 22.2173C15.6236 22.5103 16.1392 22.6667 16.6666 22.6667V22.6667L19.3333 20ZM16.6666 26.6667C15.3481 26.6667 14.0591 26.2757 12.9628 25.5431C11.8665 24.8106 11.012 23.7694 10.5074 22.5512C10.0028 21.3331 9.87082 19.9926 10.1281 18.6994C10.3853 17.4062 11.0202 16.2183 11.9526 15.286C12.8849 14.3536 14.0728 13.7187 15.366 13.4614C16.6592 13.2042 17.9997 13.3362 19.2178 13.8408C20.436 14.3454 21.4772 15.1999 22.2098 16.2962C22.9423 17.3925 23.3333 18.6815 23.3333 20C23.3333 20.5304 23.544 21.0391 23.9191 21.4142C24.2941 21.7893 24.8029 22 25.3333 22C25.8637 22 26.3724 21.7893 26.7475 21.4142C27.1226 21.0391 27.3333 20.5304 27.3333 20C27.3333 17.8903 26.7077 15.828 25.5356 14.0739C24.3636 12.3198 22.6977 10.9526 20.7486 10.1453C18.7995 9.33796 16.6548 9.12672 14.5857 9.5383C12.5165 9.94987 10.6159 10.9658 9.12415 12.4575C7.63239 13.9493 6.61649 15.8499 6.20491 17.919C5.79334 19.9882 6.00457 22.1329 6.81191 24.082C7.61924 26.031 8.98641 27.6969 10.7405 28.869C12.4947 30.0411 14.557 30.6667 16.6666 30.6667H19.3333L16.6666 26.6667ZM1.99995 20C1.99995 23.5627 3.27062 26.8293 5.38262 29.3693L1.99995 20ZM28.0266 10.7227C26.6524 9.03679 24.9198 7.67833 22.9548 6.74608C20.9897 5.81383 18.8416 5.33122 16.6666 5.33334C14.5114 5.33117 12.3824 5.80499 10.4316 6.72095C8.48071 7.6369 6.75622 8.97239 5.38129 10.632L28.0266 10.7227Z" stroke="black" stroke-width="2" stroke-linecap="round"/>
</svg>
