<svg width="33" height="32" viewBox="0 0 33 32" fill="none" xmlns="http://www.w3.org/2000/svg">
<path d="M4.66662 17.3333H5.99995V26.6667C5.99995 28.1373 7.19595 29.3333 8.66662 29.3333H24.6666C26.1373 29.3333 27.3333 28.1373 27.3333 26.6667V17.3333H28.6666C28.9303 17.3333 29.188 17.255 29.4072 17.1085C29.6264 16.962 29.7973 16.7538 29.8982 16.5102C29.9991 16.2666 30.0255 15.9985 29.9741 15.7399C29.9226 15.4813 29.7957 15.2438 29.6093 15.0573L17.6093 3.05732C17.4856 2.93339 17.3386 2.83507 17.1769 2.76799C17.0151 2.70091 16.8417 2.66638 16.6666 2.66638C16.4915 2.66638 16.3181 2.70091 16.1564 2.76799C15.9946 2.83507 15.8477 2.93339 15.724 3.05732L3.72395 15.0573C3.53754 15.2438 3.4106 15.4813 3.35918 15.7399C3.30775 15.9985 3.33416 16.2666 3.43505 16.5102C3.53594 16.7538 3.7068 16.962 3.92601 17.1085C4.14522 17.255 4.40295 17.3333 4.66662 17.3333ZM14 26.6667V20H19.3333V26.6667H14ZM16.6666 5.88532L24.6666 13.8853V20L24.668 26.6667H22V20C22 18.5293 20.804 17.3333 19.3333 17.3333H14C12.5293 17.3333 11.3333 18.5293 11.3333 20V26.6667H8.66662V13.8853L16.6666 5.88532Z" fill="black"/>
</svg>
