<svg width="32" height="32" viewBox="0 0 32 32" fill="none" xmlns="http://www.w3.org/2000/svg">
<path d="M28 13.3333H25.3334V5.33333H26.6667V2.66667H5.33335V5.33333H6.66669V13.3333H4.00002C3.6464 13.3333 3.30726 13.4738 3.05721 13.7239C2.80716 13.9739 2.66669 14.313 2.66669 14.6667V26.6667H29.3334V14.6667C29.3334 14.313 29.1929 13.9739 28.9428 13.7239C28.6928 13.4738 28.3536 13.3333 28 13.3333ZM18.6667 24V18.6667H13.3334V24H9.33335V5.33333H22.6667V24H18.6667Z" fill="black"/>
<path d="M12 8H14.6667V10.6667H12V8ZM17.3333 8H20V10.6667H17.3333V8ZM12 13.3333H14.6667V16H12V13.3333ZM17.3333 13.3333H20V16H17.3333V13.3333Z" fill="black"/>
</svg>
