<svg width="32" height="32" viewBox="0 0 32 32" fill="none" xmlns="http://www.w3.org/2000/svg">
<path d="M28.4744 6.577L16.4744 2.577C16.1665 2.47422 15.8335 2.47422 15.5256 2.577L3.55588 6.567L3.5495 6.569L3.52575 6.577C3.50387 6.58425 3.483 6.593 3.46175 6.60112C3.40539 6.62249 3.35037 6.64724 3.297 6.67525C3.28225 6.68313 3.268 6.69188 3.2535 6.70025C3.22862 6.7145 3.20412 6.729 3.18025 6.74475C3.1665 6.75363 3.15325 6.76288 3.13987 6.77225C3.11529 6.7895 3.09133 6.80742 3.068 6.826C3.05675 6.835 3.04538 6.84375 3.03425 6.853C3.00642 6.8765 2.97954 6.90096 2.95362 6.92637C2.948 6.93187 2.94213 6.93688 2.93663 6.94238C2.90563 6.97363 2.87604 7.00613 2.84788 7.03988C2.84 7.04938 2.83287 7.0595 2.82512 7.06913C2.80575 7.09363 2.78687 7.1185 2.76912 7.14412C2.75925 7.15812 2.74987 7.1725 2.74062 7.187C2.72604 7.2095 2.71208 7.23246 2.69875 7.25588C2.68963 7.27175 2.6805 7.2875 2.672 7.30375C2.65875 7.32888 2.64675 7.35475 2.63488 7.38075C2.62838 7.39513 2.62112 7.40912 2.61512 7.42375C2.599 7.46225 2.58475 7.50163 2.572 7.54163C2.56675 7.55788 2.5625 7.57475 2.55787 7.59125C2.55007 7.61834 2.54303 7.64564 2.53675 7.67312C2.52646 7.72001 2.51841 7.76735 2.51262 7.815C2.51062 7.8305 2.50837 7.84587 2.507 7.8615C2.50275 7.90725 2.5 7.95338 2.5 8V18C2.5 18.3978 2.65804 18.7794 2.93934 19.0607C3.22064 19.342 3.60218 19.5 4 19.5C4.39782 19.5 4.77936 19.342 5.06066 19.0607C5.34196 18.7794 5.5 18.3978 5.5 18V10.0811L8.46437 11.0693C7.54893 12.8219 7.27418 14.8393 7.68754 16.7729C8.10091 18.7066 9.17646 20.4353 10.7285 21.6605C8.60365 22.6492 6.79965 24.2155 5.5225 26.1805C5.4149 26.3455 5.34085 26.5301 5.30458 26.7237C5.26832 26.9173 5.27054 27.1162 5.31113 27.309C5.35173 27.5017 5.42989 27.6846 5.54115 27.8472C5.65242 28.0097 5.79462 28.1488 5.95962 28.2564C6.12463 28.364 6.30922 28.438 6.50284 28.4743C6.69646 28.5106 6.89533 28.5083 7.08809 28.4677C7.28086 28.4272 7.46374 28.349 7.62629 28.2377C7.78885 28.1265 7.9279 27.9843 8.0355 27.8193C8.89854 26.4932 10.079 25.4036 11.4699 24.6493C12.8607 23.8951 14.4178 23.5 16 23.5C17.5822 23.5 19.1393 23.8951 20.5301 24.6493C21.921 25.4036 23.1015 26.4932 23.9645 27.8193C24.1818 28.1525 24.5226 28.3857 24.9119 28.4677C25.3012 28.5497 25.7071 28.4736 26.0403 28.2563C26.3735 28.039 26.6068 27.6982 26.6888 27.3089C26.7707 26.9196 26.6947 26.5137 26.4774 26.1805C25.2002 24.2155 23.3963 22.6492 21.2715 21.6605C22.8235 20.4353 23.8991 18.7066 24.3125 16.7729C24.7258 14.8393 24.4511 12.8219 23.5356 11.0693L28.4744 9.423C28.773 9.32343 29.0328 9.13243 29.2168 8.87703C29.4009 8.62164 29.5 8.31481 29.5 8C29.5 7.68519 29.4009 7.37836 29.2168 7.12297C29.0328 6.86757 28.773 6.67657 28.4744 6.577V6.577ZM16 5.58125L23.2566 8L20.6681 8.86275L20.6641 8.86413L16 10.4189L11.3359 8.86413L11.3322 8.86287L8.7435 8L16 5.58125ZM21.5 15C21.5001 15.8543 21.3013 16.6968 20.9192 17.4609C20.5372 18.2249 19.9824 18.8895 19.2988 19.4018C18.6153 19.9142 17.8218 20.2603 16.9812 20.4127C16.1407 20.5651 15.2762 20.5196 14.4562 20.2799C13.6363 20.0401 12.8835 19.6126 12.2575 19.0313C11.6315 18.45 11.1495 17.7309 10.8498 16.931C10.55 16.1311 10.4407 15.2723 10.5305 14.4228C10.6203 13.5733 10.9067 12.7563 11.3671 12.0367L15.5256 13.423C15.8335 13.5257 16.1665 13.5257 16.4744 13.423L20.6329 12.0367C21.1997 12.9211 21.5007 13.9496 21.5 15Z" fill="black"/>
</svg>
